<!DOCTYPE svg PUBLIC "-//W3C//DTD SVG 1.1//EN" "http://www.w3.org/Graphics/SVG/1.1/DTD/svg11.dtd">
<!-- Uploaded to: SVG Repo, www.svgrepo.com, Transformed by: SVG Repo Mixer Tools -->
<svg width="256px" height="256px" viewBox="-1.92 -1.92 27.84 27.84" fill="none" xmlns="http://www.w3.org/2000/svg" stroke="#ff0000" transform="matrix(1, 0, 0, 1, 0, 0)rotate(0)" stroke-width="0.8879999999999999">
<g id="SVGRepo_bgCarrier" stroke-width="0"/>
<g id="SVGRepo_tracerCarrier" stroke-linecap="round" stroke-linejoin="round"/>
<g id="SVGRepo_iconCarrier"> <path d="M5.0333 14.8284L6.44751 16.2426L10.6902 12L6.44751 7.75733L5.0333 9.17155L7.86172 12L5.0333 14.8284Z" fill="#000000"/> <path d="M15 14H11V16H15V14Z" fill="#000000"/> <path fill-rule="evenodd" clip-rule="evenodd" d="M2 2C0.895431 2 0 2.89543 0 4V20C0 21.1046 0.89543 22 2 22H22C23.1046 22 24 21.1046 24 20V4C24 2.89543 23.1046 2 22 2H2ZM22 4H2L2 20H22V4Z" fill="#000000"/> </g>
</svg>